<svg width="71" height="70" viewBox="0 0 71 70" fill="none" xmlns="http://www.w3.org/2000/svg">
<path fill-rule="evenodd" clip-rule="evenodd" d="M4.3584 23.8895L20.0706 8.17731H50.9297L66.6419 23.8895V46.1105L50.9297 61.8227H20.0706L4.3584 46.1105V23.8895Z" stroke="#7FFF00" stroke-width="6" stroke-miterlimit="10" stroke-linejoin="round"/>
<path d="M47.8182 43.1364L42.3636 37.6818C43.3864 36.0909 43.9545 34.2727 43.9545 32.2273C43.9545 26.5455 39.4091 22 33.7273 22C28.0455 22 23.5 26.5455 23.5 32.2273C23.5 37.9091 28.0455 42.4545 33.7273 42.4545C35.7727 42.4545 37.5909 41.8864 39.1818 40.8636L44.6364 46.3182C45.0909 46.7727 45.6591 47 46.2273 47C47.4773 47 48.5 45.9773 48.5 44.7273C48.5 44.0455 48.2727 43.4773 47.8182 43.1364ZM28.0455 32.2273C28.0455 29.0455 30.5455 26.5455 33.7273 26.5455C36.9091 26.5455 39.4091 29.0455 39.4091 32.2273C39.4091 35.4091 36.9091 37.9091 33.7273 37.9091C30.5455 37.9091 28.0455 35.4091 28.0455 32.2273Z" fill="white"/>
</svg>
