<svg width="71" height="70" viewBox="0 0 71 70" fill="none" xmlns="http://www.w3.org/2000/svg">
<path fill-rule="evenodd" clip-rule="evenodd" d="M4.3584 23.8895L20.0706 8.17731H50.9297L66.6419 23.8895V46.1105L50.9297 61.8227H20.0706L4.3584 46.1105V23.8895Z" stroke="#7FFF00" stroke-width="6" stroke-miterlimit="10" stroke-linejoin="round"/>
<g clip-path="url(#clip0)">
<path d="M37.8949 36.3938L47.9609 27H25.7056L35.7707 36.3938C36.3663 36.9509 37.3002 36.9509 37.8949 36.3938Z" fill="white"/>
<path d="M31.3922 34.75L24.3333 28.1616V41.8089L31.3922 34.75Z" fill="white"/>
<path d="M42.2744 34.75L49.3333 41.8089V28.1616L42.2744 34.75Z" fill="white"/>
<path d="M40.968 35.9688L39.1136 37.6991C38.4734 38.2964 37.6528 38.5946 36.8323 38.5946C36.0118 38.5946 35.1912 38.2964 34.5511 37.6991L32.6966 35.9688L25.5957 43.0714H48.0707L40.968 35.9688Z" fill="white"/>
</g>
<defs>
<clipPath id="clip0">
<rect width="25" height="25" fill="white" transform="translate(23.5 22)"/>
</clipPath>
</defs>
</svg>
